<svg id="Ebene_1" data-name="Ebene 1" xmlns="http://www.w3.org/2000/svg" viewBox="0 0 51.1 73.21"><defs><style>.cls-1{fill:#b53ad2;}.cls-2,.cls-3{fill:none;stroke:#b53ad2;stroke-linecap:round;}.cls-2{stroke-width:3px;}.cls-3{stroke-width:3px;}</style></defs><path class="cls-1" d="M49.6,29.07l1.5-2.38-1.37-2.46,1-2.63-1.81-2.13.48-2.78L47.23,15l-.06-2.82-2.48-1.27-.6-2.76-2.67-.75L40.31,4.77l-2.77-.21L36,2.24l-2.75.35L31.2.64l-2.63.88L26.23,0,23.81,1.39l-2.58-1-2.1,1.84L16.4,1.72,14.69,3.94,11.92,4,10.67,6.52,8,7.13,7.22,9.85,4.68,11l-.2,2.82L2.2,15.41l.34,2.8-1.92,2,.87,2.68L0,25.31l1.37,2.46-1,2.63,1.81,2.13-.48,2.78,2.18,1.74.06,2.82,2.48,1.27L7,43.9l2.67.75,1.12,2.59,2.76.21,1.59,2.31,2.76-.34,2,1.95,2.63-.89L24.87,52l2.41-1.39,2.59,1L32,49.79l2.73.49,1.71-2.22L39.18,48l1.25-2.52,2.71-.61.74-2.72L46.41,41l.2-2.82,2.28-1.62-.34-2.8,1.92-2ZM25.5,42A16.26,16.26,0,0,1,9,26,16.26,16.26,0,0,1,25.5,10,16.26,16.26,0,0,1,42,26,16.26,16.26,0,0,1,25.5,42Z" transform="translate(0 0)"/><g id="Gruppe_3" data-name="Gruppe 3"><line id="Linie_1" data-name="Linie 1" class="cls-2" x1="16.94" y1="42" x2="5.53" y2="66.47"/><line id="Linie_2" data-name="Linie 2" class="cls-2" x1="12.84" y1="63.81" x2="5.77" y2="66.38"/><line id="Linie_4" data-name="Linie 4" class="cls-2" x1="14.46" y1="70.98" x2="12.55" y2="63.68"/><line id="Linie_3" data-name="Linie 3" class="cls-2" x1="26" y1="46.23" x2="14.59" y2="70.7"/></g><g id="Gruppe_4" data-name="Gruppe 4"><line id="Linie_1-2" data-name="Linie 1-2" class="cls-3" x1="27.94" y1="46.86" x2="38.49" y2="71.71"/><line id="Linie_2-2" data-name="Linie 2-2" class="cls-3" x1="41.4" y1="64.5" x2="38.59" y2="71.47"/><line id="Linie_4-2" data-name="Linie 4-2" class="cls-3" x1="47.82" y1="68.09" x2="41.11" y2="64.62"/><line id="Linie_3-2" data-name="Linie 3-2" class="cls-3" x1="37.14" y1="42.95" x2="47.69" y2="67.8"/></g></svg>